<svg xmlns="http://www.w3.org/2000/svg" xmlns:xlink="http://www.w3.org/1999/xlink" xml:space="preserve" style="shape-rendering:geometricPrecision;text-rendering:geometricPrecision;image-rendering:optimizeQuality;" x="0px" y="0px" fill-rule="evenodd" clip-rule="evenodd" viewBox="0 0 0.31 0.28"><defs><style type="text/css">      .fil0 {fill:black}    </style></defs><g><path class="fil0" d="M0.0592953 0.0105787c0.0152835,0.0342441 0.0535669,0.0811457 0.0975591,0.125169 0.0439921,-0.0440236 0.0822756,-0.0909252 0.0975591,-0.125169 0.0322244,-0.0322244 0.0809409,0.0164921 0.0487165,0.0487165 -0.0232165,0.0337677 -0.065437,0.0734764 -0.111134,0.109913 0.0374488,0.0339252 0.0757165,0.0632283 0.105335,0.0794094 0.0558858,0.0679016 -0.0412717,0.0204843 -0.140476,-0.0525039 -0.0992047,0.0729882 -0.196362,0.120406 -0.140476,0.0525039 0.029622,-0.0161811 0.0678858,-0.0454843 0.105335,-0.0794094 -0.0456969,-0.036437 -0.0879173,-0.0761457 -0.111134,-0.109913 -0.0322244,-0.0322244 0.0164921,-0.0809409 0.0487165,-0.0487165z"></path></g></svg>
