<svg
	xmlns="http://www.w3.org/2000/svg"
	xmlns:xlink="http://www.w3.org/1999/xlink" version="1.1" >
	<symbol id="close" x="0px" y="0px" style="enable-background:new 0 0 100 100;" xml:space="preserve" viewBox="2.5 2.5 95 95">
		<path d="M33.3297729,69.6389771c-0.7595825,0-1.519165-0.289917-2.098999-0.869751c-1.159668-1.158699-1.159668-3.039299,0-4.197998  L64.571228,31.2307739c1.159668-1.159668,3.0383301-1.159668,4.197998,0c1.159668,1.1587029,1.159668,3.0392952,0,4.197998  L35.428772,68.7692261C34.848938,69.3490601,34.0893555,69.6389771,33.3297729,69.6389771z"/>
		<path d="M66.6702271,69.6389771c-0.7595825,0-1.519165-0.289917-2.098999-0.869751L31.2307739,35.428772  c-1.159668-1.1587029-1.159668-3.0392952,0-4.197998c1.159668-1.159668,3.0383301-1.159668,4.197998,0L68.7692261,64.571228  c1.159668,1.158699,1.159668,3.039299,0,4.197998C68.1893921,69.3490601,67.4298096,69.6389771,66.6702271,69.6389771z"/>
		<path d="M73.5750809,97.5H26.4249153c-13.1921892,0-23.9249172-10.7327271-23.9249172-23.9249191V26.4249172  C2.4999988,13.2327271,13.2327261,2.5,26.4249153,2.5h47.1501656C86.7672729,2.5,97.5,13.2327271,97.5,26.4249172v47.1501617  C97.5,86.7672729,86.7672729,97.5,73.5750809,97.5z M26.4249153,8.4375c-9.9180603,0-17.9874153,8.0693569-17.9874153,17.9874172  v47.1501617c0,9.9180603,8.069356,17.9874191,17.9874153,17.9874191h47.1501656  c9.9180603,0,17.9874191-8.0693588,17.9874191-17.9874191V26.4249172c0-9.9180603-8.0693588-17.9874172-17.9874191-17.9874172  H26.4249153z"/>
	</symbol>
</svg>
