<svg xmlns="http://www.w3.org/2000/svg">

<symbol id="outline" viewBox="4.64 2 58.48 64"><path id="path1" d="M57.957 9.879a.59.59 0 0 0-.113-.114c-4.542-3.984-8.992-4.996-13.637-3.107l-.103.031c-.021.01-.093.041-.114.052-.289.082-.557.185-.815.31-2.53 1.021-4.718 2.941-6.514 5.74-.135.185-.3.32-.506.391a.974.974 0 0 1-.847-.03 1 1 0 0 1-.537-.62c-.093-.258-.154-.475-.227-.63a1.298 1.298 0 0 0-.124-.268c-.03-.093-.082-.186-.082-.269a12.71 12.71 0 0 0-1.745-2.962c-2.064-2.509-5.1-4.45-9.022-5.812a.657.657 0 0 0-.165-.062c-3.562-.826-6.731-.682-9.415.413-3.252 1.331-5.957 4.098-8.042 8.238-2.22 4.428-1.61 10.478 1.848 17.993 2.199 4.078 4.418 7.526 6.669 10.334 2.756 3.54 6.916 8.258 12.388 14.018.04.042.072.062.113.104 2.168 2.529 2.705 3.272 2.911 3.613 1.363 1.971 1.962 3.778 1.827 5.44-.062.712.362 1.373 1.012 1.652a.99.99 0 0 1 .733.62c.186.484.578.846 1.084.98.34.103.712.083 1.053-.041.475-.196.816-.578.95-1.074 1.672-5.77 3.582-10.189 5.688-13.1.113-.145.186-.31.237-.475a.941.941 0 0 1 .258-.423c1.239-1.858 6.019-7.154 14.597-16.156l.073-.072c1.837-2.189 3.272-4.543 4.263-6.958 2.808-6.38 1.59-12.182-3.696-17.756zm.702 16.465v.021c-.857 2.054-2.064 4.036-3.592 5.915-.02.052-.072.093-.103.134-11.542 12.12-14.742 16.084-15.382 17.26a.895.895 0 0 1-.144.342c-1.353 1.899-2.612 4.335-3.79 7.246a.975.975 0 0 1-.557.568.954.954 0 0 1-.413.083 1.06 1.06 0 0 1-.929-.547c-.32-.64-.702-1.28-1.156-1.92 0-.01-.02-.052-.051-.073-.465-.712-1.518-2.033-3.108-3.87-5.543-5.834-9.683-10.52-12.388-14-2.136-2.652-4.263-5.945-6.328-9.796a.386.386 0 0 1-.072-.165c-2.952-6.514-3.54-11.397-1.796-14.907 1.683-3.272 3.86-5.481 6.493-6.555 2.024-.826 4.326-.97 6.855-.475.113 0 .206.02.31.052 3.313 1.166 5.842 2.756 7.504 4.748a9.096 9.096 0 0 1 1.435 2.54c.01.051.042.103.052.134.196.485.537 1.59 1.487 6.421 0 .072.02.145.061.217.341 1.043.95 1.559 1.93 1.683.27.04.558 0 .816-.093.434-.196.785-.547.93-1.002 1.868-5.481 4.449-8.93 7.69-10.25.238-.094.444-.166.682-.228.02-.03.072-.041.103-.062l.237-.093c3.221-1.31 6.576-.547 9.942 2.282a.765.765 0 0 1 .206.165c4.243 4.48 5.275 9.25 3.076 14.225z"/></symbol>

<symbol id="filled" viewBox="4.64 2 58.48 64"><path id="path1" d="M57.957 9.879a.59.59 0 0 0-.113-.114c-4.542-3.984-8.992-4.996-13.637-3.107l-.103.031c-.021.01-.093.041-.114.052-.289.082-.557.185-.815.31-2.53 1.021-4.718 2.941-6.514 5.74-.135.185-.3.32-.506.391a.974.974 0 0 1-.847-.03 1 1 0 0 1-.537-.62c-.093-.258-.154-.475-.227-.63a1.298 1.298 0 0 0-.124-.268c-.03-.093-.082-.186-.082-.269a12.71 12.71 0 0 0-1.745-2.962c-2.064-2.509-5.1-4.45-9.022-5.812a.657.657 0 0 0-.165-.062c-3.562-.826-6.731-.682-9.415.413-3.252 1.331-5.957 4.098-8.042 8.238-2.22 4.428-1.61 10.478 1.848 17.993 2.199 4.078 4.418 7.526 6.669 10.334 2.756 3.54 6.916 8.258 12.388 14.018.04.042.072.062.113.104 2.168 2.529 2.705 3.272 2.911 3.613 1.363 1.971 1.962 3.778 1.827 5.44-.062.712.362 1.373 1.012 1.652a.99.99 0 0 1 .733.62c.186.484.578.846 1.084.98.34.103.712.083 1.053-.041.475-.196.816-.578.95-1.074 1.672-5.77 3.582-10.189 5.688-13.1.113-.145.186-.31.237-.475a.941.941 0 0 1 .258-.423c1.239-1.858 6.019-7.154 14.597-16.156l.073-.072c1.837-2.189 3.272-4.543 4.263-6.958 2.808-6.38 1.59-12.182-3.696-17.756zm.702 16.465v.021c-.857 2.054-2.064 4.036-3.592 5.915-.02.052-.072.093-.103.134-11.542 12.12-14.742 16.084-15.382 17.26a.895.895 0 0 1-.144.342c-1.353 1.899-2.612 4.335-3.79 7.246a.975.975 0 0 1-.557.568.954.954 0 0 1-.413.083 1.06 1.06 0 0 1-.929-.547c-.32-.64-.702-1.28-1.156-1.92 0-.01-.02-.052-.051-.073-.465-.712-1.518-2.033-3.108-3.87-5.543-5.834-9.683-10.52-12.388-14-2.136-2.652-4.263-5.945-6.328-9.796a.386.386 0 0 1-.072-.165c-2.952-6.514-3.54-11.397-1.796-14.907 1.683-3.272 3.86-5.481 6.493-6.555 2.024-.826 4.326-.97 6.855-.475.113 0 .206.02.31.052 3.313 1.166 5.842 2.756 7.504 4.748a9.096 9.096 0 0 1 1.435 2.54c.01.051.042.103.052.134.196.485.537 1.59 1.487 6.421 0 .072.02.145.061.217.341 1.043.95 1.559 1.93 1.683.27.04.558 0 .816-.093.434-.196.785-.547.93-1.002 1.868-5.481 4.449-8.93 7.69-10.25.238-.094.444-.166.682-.228.02-.03.072-.041.103-.062l.237-.093c3.221-1.31 6.576-.547 9.942 2.282a.765.765 0 0 1 .206.165c4.243 4.48 5.275 9.25 3.076 14.225z"/><path id="path2" fill="#ffc9ef" stroke="#ffc9ef" d="M34.337 57.657c-.15-.11-.847-1.054-1.55-2.098-1.343-1.993-3.024-3.957-7.925-9.263C16.152 36.867 11.43 29.97 9.266 23.51c-1.107-3.306-1.461-5.946-1.08-8.057.633-3.514 3.508-7.327 6.712-8.905 1.69-.832 1.977-.886 4.674-.886 2.837 0 2.903.015 5.21 1.158 2.76 1.367 5.12 3.421 6.058 5.27.37.73.975 2.694 1.346 4.365 1.027 4.623 1.296 5.071 3.05 5.071 1.008 0 1.131-.159 2.407-3.118 2.08-4.827 4.46-7.427 7.818-8.544 3.231-1.076 5.908-.62 8.778 1.492 2.77 2.039 4.976 5.77 5.367 9.073.301 2.539-1.06 6.551-3.373 9.944-.597.877-2.976 3.608-5.285 6.069-9.78 10.42-11.435 12.523-14.17 17.997-1.606 3.212-1.908 3.61-2.441 3.219z"/></symbol>

</svg>
